<svg xmlns="http://www.w3.org/2000/svg" viewBox="0 0 24 24" fill="currentColor">
  <path d="M12 .5C5.73.5.5 5.73.5 12c0 5.08 3.29 9.39 7.86 10.91.57.1.78-.25.78-.55v-2.02c-3.2.7-3.88-1.38-3.88-1.38-.53-1.35-1.3-1.71-1.3-1.71-1.06-.73.08-.72.08-.72 1.17.08 1.79 1.2 1.79 1.2 1.04 1.78 2.73 1.27 3.4.97.11-.75.41-1.27.74-1.56-2.55-.29-5.24-1.27-5.24-5.66 0-1.25.45-2.28 1.19-3.08-.12-.29-.52-1.46.11-3.04 0 0 .97-.31 3.18 1.18a11.08 11.08 0 0 1 5.8 0c2.21-1.49 3.18-1.18 3.18-1.18.63 1.58.23 2.75.11 3.04.74.8 1.18 1.83 1.18 3.08 0 4.4-2.7 5.36-5.26 5.64.42.36.79 1.08.79 2.18v3.23c0 .3.2.66.79.55A11.51 11.51 0 0 0 23.5 12C23.5 5.73 18.27.5 12 .5z"/>
</svg>
