<svg width="250" height="250" viewBox="0 0 250 250" fill="none" xmlns="http://www.w3.org/2000/svg">
<rect width="250" height="250" fill="#D50032"/>
<path d="M226.016 125C226.016 69.2236 180.793 24 125.008 24C69.2236 24 24 69.2154 24 125C24 180.785 69.2236 226 125.008 226C180.793 226 226.016 180.785 226.016 125Z" fill="#D50032"/>
<path d="M179.883 93.961C159.34 93.961 146.746 107.822 146.746 128.048C146.746 148.201 158.663 162.163 179.492 162.163C194.505 162.163 203.905 154.897 208.557 144.323L190.636 137.945C188.795 143.077 185.406 146.172 179.59 146.172C171.159 146.172 166.891 139.387 166.891 128.048C166.891 116.636 171.159 109.655 179.59 109.655C185.789 109.655 189.373 113.434 191.027 119.821L208.166 111.585C204.866 102.962 195.572 93.961 179.883 93.961ZM45.9009 95.1194V134.068C45.9009 143.273 46.8719 147.72 49.4916 152.184C53.8496 159.45 65.4712 162.26 75.6486 162.26C85.8186 162.26 97.4492 159.45 101.808 152.184C104.42 147.72 105.394 143.273 105.394 134.068V95.1194H85.6231V134.451C85.6231 138.906 85.044 141.823 83.3953 143.753C81.8451 145.594 79.3297 146.466 75.6486 146.466C71.9602 146.466 69.4472 145.594 67.8962 143.753C66.2556 141.823 65.6683 138.906 65.6683 134.451V95.1194H45.9009ZM117.393 95.1194V160.998H137.163V95.1194H117.393Z" fill="white"/>
</svg>
